<svg width="1200" height="2500" viewBox="0 0 1200 2500" xmlns="http://www.w3.org/2000/svg">
  <!-- CloudInfraMap (CIM) Design System - Molecules Complete Library (Rev 3) -->
  <rect width="1200" height="2500" fill="#FBFBFB"/>
  
  <defs>
    <!-- Glassmorphism filter -->
    <filter id="glassBlur">
      <feGaussianBlur stdDeviation="12" result="blur"/>
      <feColorMatrix in="blur" mode="matrix" values="1 0 0 0 0  0 1 0 0 0  0 0 1 0 0  0 0 0 18 -11" result="goo"/>
    </filter>
    <linearGradient id="glassGrad" x1="0%" y1="0%" x2="100%" y2="100%">
      <stop offset="0%" style="stop-color:rgba(255,255,255,0.4);stop-opacity:1" />
      <stop offset="100%" style="stop-color:rgba(255,255,255,0.1);stop-opacity:1" />
    </linearGradient>
  </defs>

  <text x="40" y="50" font-family="Inter, sans-serif" font-size="32" font-weight="bold" fill="#1B1A19">CloudInfraMap (CIM) — Molecules Library (Rev 3)</text>

  <!-- 1. KPI CARDS & GLASSVARIANTS -->
  <text x="40" y="100" font-family="Inter, sans-serif" font-size="20" font-weight="600" fill="#323130">1. KPI Cards (Standard & Glassmorphism)</text>
  <g transform="translate(40, 130)">
    <!-- Standard Card -->
    <rect width="260" height="140" rx="8" fill="#FFFFFF" stroke="#E1DFDD" stroke-width="1"/>
    <text x="16" y="30" font-family="Inter, sans-serif" font-size="14" fill="#616161">Standard Content</text>
    <text x="16" y="70" font-family="Inter, sans-serif" font-size="28" font-weight="bold" fill="#242424">Kč 1.234k</text>

    <!-- Glassmorphism Card (New) -->
    <g transform="translate(300, 0)">
      <!-- Background pattern to show transparency -->
      <circle cx="50" cy="50" r="40" fill="#0078D4" opacity="0.3"/>
      <rect x="80" y="60" width="100" height="60" fill="#107C10" opacity="0.2"/>
      
      <rect width="260" height="140" rx="16" fill="url(#glassGrad)" stroke="rgba(255,255,255,0.3)" stroke-width="1.5" style="backdrop-filter: blur(12px);"/>
      <text x="16" y="35" font-family="Inter, sans-serif" font-size="14" font-weight="bold" fill="#242424">Glass Card</text>
      <text x="16" y="75" font-family="Inter, sans-serif" font-size="28" font-weight="bold" fill="#0078D4">Kč 45.3k</text>
    </g>
  </g>

  <!-- 2. WIDGET CARDS (New) -->
  <text x="40" y="350" font-family="Inter, sans-serif" font-size="20" font-weight="600" fill="#323130">2. Widget Cards (Generic Containers)</text>
  <g transform="translate(40, 390)">
    <rect width="400" height="250" rx="12" fill="#FFFFFF" stroke="#E1DFDD" stroke-width="1"/>
    <rect width="400" height="48" rx="12 12 0 0" fill="#F8F8F8" stroke="#E1DFDD" stroke-width="1"/>
    <text x="20" y="30" font-family="Inter, sans-serif" font-size="16" font-weight="bold" fill="#242424">Widget Header</text>
    <text x="380" y="30" font-family="Inter, sans-serif" font-size="14" text-anchor="end" fill="#0078D4">Settings</text>
    <rect x="20" y="70" width="360" height="150" rx="8" fill="#FBFBFB" stroke="#F1F1F1" stroke-dasharray="4 4"/>
    <text x="200" y="150" font-family="Inter, sans-serif" font-size="14" text-anchor="middle" fill="#9E9E9E">Content Slot</text>
  </g>

  <!-- 3. NAVIGATION ITEM MATRIX -->
  <text x="40" y="700" font-family="Inter, sans-serif" font-size="20" font-weight="600" fill="#323130">3. Sidebar Nav Items (States & Collapsed)</text>
  <g transform="translate(40, 740)">
    <g>
      <text x="0" y="-10" font-family="Inter, sans-serif" font-size="11" font-weight="bold" fill="#9E9E9E">EXPANDED (260px)</text>
      <!-- Active -->
      <rect width="240" height="40" rx="6" fill="#F3F2F1"/>
      <rect width="4" height="24" y="8" rx="2" fill="#0078D4"/>
      <text x="40" y="25" font-family="Inter, sans-serif" font-size="14" font-weight="600" fill="#0078D4">Dashboard</text>
      <!-- Hover -->
      <g transform="translate(0, 50)">
        <rect width="240" height="40" rx="6" fill="#EDEBE9"/>
        <text x="40" y="25" font-family="Inter, sans-serif" font-size="14" fill="#242424">Resources</text>
      </g>
    </g>
    
    <g transform="translate(300, 0)">
      <text x="0" y="-10" font-family="Inter, sans-serif" font-size="11" font-weight="bold" fill="#9E9E9E">COLLAPSED (60px)</text>
      <rect width="48" height="48" rx="8" fill="#F3F2F1"/>
      <rect x="12" y="12" width="24" height="24" rx="4" fill="none" stroke="#0078D4" stroke-width="1.5"/>
      <circle cx="48" cy="12" r="6" fill="#D13438"/><text x="48" y="15" font-family="Inter, sans-serif" font-size="8" text-anchor="middle" fill="#FFFFFF">3</text>
    </g>
  g>

  <!-- 4. SKELETON LOADING STATES (Expanded) -->
  <text x="40" y="1000" font-family="Inter, sans-serif" font-size="20" font-weight="600" fill="#323130">4. Skeleton Loading (Expanded Library)</text>
  <g transform="translate(40, 1040)">
    <!-- KPI Skeleton -->
    <g>
      <text x="0" y="-15" font-family="Inter, sans-serif" font-size="12" font-weight="bold" fill="#616161">Card Skeleton</text>
      <rect width="260" height="140" rx="8" fill="#FFFFFF" stroke="#F3F2F1" stroke-width="1"/>
      <rect x="16" y="20" width="120" height="16" rx="4" fill="#F3F2F1"/>
      <rect x="16" y="60" width="180" height="28" rx="4" fill="#F3F2F1"/>
    </g>
    
    <!-- Form Skeleton (New) -->
    <g transform="translate(300, 0)">
      <text x="0" y="-15" font-family="Inter, sans-serif" font-size="12" font-weight="bold" fill="#616161">Form Skeleton</text>
      <rect x="0" y="0" width="100" height="12" rx="2" fill="#F3F2F1"/>
      <rect x="0" y="20" width="300" height="32" rx="4" fill="#F9F9F9"/>
      <rect x="0" y="65" width="80" height="12" rx="2" fill="#F3F2F1"/>
      <rect x="0" y="85" width="300" height="32" rx="4" fill="#F9F9F9"/>
    </g>

    <!-- Dashboard Skeleton (New) -->
    <g transform="translate(650, 0)">
      <text x="0" y="-15" font-family="Inter, sans-serif" font-size="12" font-weight="bold" fill="#616161">Dashboard Skeleton</text>
      <rect width="450" height="300" rx="8" fill="#FFFFFF" stroke="#F3F2F1" stroke-width="1"/>
      <rect x="20" y="20" width="200" height="24" rx="4" fill="#F3F2F1"/>
      <rect x="20" y="60" width="410" height="220" rx="4" fill="#F9F9F9"/>
    </g>
  </g>

  <!-- 5. FUNCTIONAL CARDS -->
  <text x="40" y="1450" font-family="Inter, sans-serif" font-size="20" font-weight="600" fill="#323130">5. Functional Cards & Empty State</text>
  <g transform="translate(40, 1490)">
    <!-- Opportunity Card -->
    <rect width="360" height="180" rx="12" fill="#FFFFFF" stroke="#0078D4" stroke-width="1" stroke-dasharray="4 2"/>
    <text x="20" y="35" font-family="Inter, sans-serif" font-size="16" font-weight="bold" fill="#0078D4">💰 Saving Opportunity</text>
    <text x="20" y="65" font-family="Inter, sans-serif" font-size="14" fill="#242424">Instance 'vm-prod-01' is underutilized.</text>
    <rect x="20" y="90" width="320" height="40" rx="8" fill="#F0F9FF"/>
    <text x="310" y="165" font-family="Inter, sans-serif" font-size="12" font-weight="bold" text-anchor="end" fill="#0078D4">APPLY ACTION →</text>
  </g>
</svg>
